<svg width="685" height="598" viewBox="0 0 685 598" fill="none" xmlns="http://www.w3.org/2000/svg">
<path d="M556.223 36.3014L675.269 252.978C683.707 268.335 685.938 286.343 681.505 303.295L618.182 545.41C609.739 577.693 579.262 599.195 546.017 596.324L226.651 568.742C208.31 567.158 191.379 558.258 179.674 544.049L38.8821 373.138C15.6569 344.944 18.6405 303.486 45.6635 278.909L210.191 129.271C215.367 124.563 221.235 120.676 227.589 117.745L467.496 7.08446C500.155 -7.98021 538.904 4.77931 556.223 36.3014Z" fill="#2F6B97" stroke="black"/>
<rect x="184.5" y="227.5" width="53" height="262" rx="26.5" fill="#52D33D" stroke="#0D0AAA"/>
<g filter="url(#filter0_d_0_1)">
<rect x="190" y="198" width="160" height="160" rx="58" fill="#CFDF1C"/>
<rect x="190.5" y="198.5" width="159" height="159" rx="57.5" stroke="black"/>
</g>
<path d="M222.676 246.297C229.615 226.484 250.807 215.524 270.986 221.314L310.904 232.767C330.355 238.347 333.244 264.71 315.463 274.37V274.37C306.603 279.184 302.001 289.282 304.181 299.127L304.609 301.06C309.005 320.921 289.306 337.558 270.461 329.9L240.325 317.653C219.421 309.158 208.858 285.756 216.316 264.46L222.676 246.297Z" fill="#F4E9E9"/>
<path d="M431.424 265.694L427.989 472.665C427.728 488.403 414.758 500.95 399.02 500.689C383.282 500.427 370.736 487.458 370.997 471.72L374.432 264.748C374.693 249.01 387.663 236.464 403.401 236.725C419.139 236.986 431.685 249.956 431.424 265.694Z" fill="#4C279A" stroke="black"/>
<rect y="81" width="6" height="1" fill="#D9D9D9"/>
<path d="M470.739 218.602L470.769 218.604L470.798 218.603L541.77 215.967C557.086 215.398 569.729 227.827 569.422 243.151C569.101 259.127 554.899 271.236 539.073 269.027L475.55 260.161C472.388 259.72 469.183 259.663 466.006 259.994L406.231 266.207C390.354 267.857 376.62 255.225 376.94 239.266C377.247 223.972 390.38 212.1 405.627 213.334L470.739 218.602Z" fill="#4C279A" stroke="black"/>
<path d="M428.926 331.5H501.607C512.027 331.5 513.512 346.547 503.291 348.586C493.037 350.632 492.939 365.261 503.166 367.439C513.291 369.596 511.722 384.5 501.369 384.5H429.342C419.452 384.5 411.867 375.721 413.302 365.935L414.051 360.833C414.352 358.777 414.349 356.688 414.042 354.633L413.295 349.644C411.866 340.09 419.266 331.5 428.926 331.5Z" fill="#4C279A" stroke="black"/>
<path d="M584.424 471.23L582.483 483.264C580.23 497.232 568.173 507.5 554.024 507.5H398C382.812 507.5 370.5 495.188 370.5 480C370.5 464.812 382.812 452.5 398 452.5H473H533.4C538.45 452.5 543.377 450.95 547.518 448.06C564.654 436.096 587.752 450.598 584.424 471.23Z" fill="#D33D8E" stroke="black"/>
<defs>
<filter id="filter0_d_0_1" x="186" y="198" width="168" height="168" filterUnits="userSpaceOnUse" color-interpolation-filters="sRGB">
<feFlood flood-opacity="0" result="BackgroundImageFix"/>
<feColorMatrix in="SourceAlpha" type="matrix" values="0 0 0 0 0 0 0 0 0 0 0 0 0 0 0 0 0 0 127 0" result="hardAlpha"/>
<feOffset dy="4"/>
<feGaussianBlur stdDeviation="2"/>
<feComposite in2="hardAlpha" operator="out"/>
<feColorMatrix type="matrix" values="0 0 0 0 0 0 0 0 0 0 0 0 0 0 0 0 0 0 0.25 0"/>
<feBlend mode="normal" in2="BackgroundImageFix" result="effect1_dropShadow_0_1"/>
<feBlend mode="normal" in="SourceGraphic" in2="effect1_dropShadow_0_1" result="shape"/>
</filter>
</defs>
</svg>
